<svg width="24" height="24" viewBox="0 0 24 24" fill="none" xmlns="http://www.w3.org/2000/svg">
<path d="M0 6C0 2.68629 2.68629 0 6 0H18C21.3137 0 24 2.68629 24 6V18C24 21.3137 21.3137 24 18 24H6C2.68629 24 0 21.3137 0 18V6Z" fill="#E64449"/>
<path d="M17.3538 9.14625L13.8538 5.64625C13.8073 5.59983 13.7521 5.56303 13.6914 5.53793C13.6307 5.51284 13.5657 5.49995 13.5 5.5H7.5C7.23478 5.5 6.98043 5.60536 6.79289 5.79289C6.60536 5.98043 6.5 6.23478 6.5 6.5V17.5C6.5 17.7652 6.60536 18.0196 6.79289 18.2071C6.98043 18.3946 7.23478 18.5 7.5 18.5H16.5C16.7652 18.5 17.0196 18.3946 17.2071 18.2071C17.3946 18.0196 17.5 17.7652 17.5 17.5V9.5C17.5001 9.43432 17.4872 9.36927 17.4621 9.30858C17.437 9.24788 17.4002 9.19272 17.3538 9.14625ZM14 7.20688L15.7931 9H14V7.20688ZM16.5 17.5H7.5V6.5H13V9.5C13 9.63261 13.0527 9.75979 13.1464 9.85355C13.2402 9.94732 13.3674 10 13.5 10H16.5V17.5ZM14.5 12.5C14.5 12.6326 14.4473 12.7598 14.3536 12.8536C14.2598 12.9473 14.1326 13 14 13H10C9.86739 13 9.74021 12.9473 9.64645 12.8536C9.55268 12.7598 9.5 12.6326 9.5 12.5C9.5 12.3674 9.55268 12.2402 9.64645 12.1464C9.74021 12.0527 9.86739 12 10 12H14C14.1326 12 14.2598 12.0527 14.3536 12.1464C14.4473 12.2402 14.5 12.3674 14.5 12.5ZM14.5 14.5C14.5 14.6326 14.4473 14.7598 14.3536 14.8536C14.2598 14.9473 14.1326 15 14 15H10C9.86739 15 9.74021 14.9473 9.64645 14.8536C9.55268 14.7598 9.5 14.6326 9.5 14.5C9.5 14.3674 9.55268 14.2402 9.64645 14.1464C9.74021 14.0527 9.86739 14 10 14H14C14.1326 14 14.2598 14.0527 14.3536 14.1464C14.4473 14.2402 14.5 14.3674 14.5 14.5Z" fill="white"/>
</svg>
