<svg width="48" height="22" viewBox="0 0 48 22" fill="none" xmlns="http://www.w3.org/2000/svg">
<path d="M37.9412 18H35L39.5571 4.69995H43.0611L47.6 18H44.6769L43.6965 14.9321H38.9398L37.9412 18ZM39.6297 12.7828H43.0066L41.3545 7.69429H41.2637L39.6297 12.7828Z" fill="#1A1A1A"/>
<path d="M27.2098 12.0055V18H24.5V7.63364H27.0816V9.44727H27.1915C27.6492 8.24455 28.7112 7.5 30.1759 7.5C32.2449 7.5 33.6181 8.97 33.5998 11.3945V18H30.9083V11.8909C30.9083 10.6118 30.2309 9.84818 29.114 9.84818C27.9788 9.84818 27.2098 10.6309 27.2098 12.0055Z" fill="#1A1A1A"/>
<path d="M18.3802 18C15.2335 18 13.3001 15.9786 13.3001 12.7594C13.3001 9.61497 15.2525 7.5 18.2664 7.5C20.9771 7.5 23.1001 9.18449 23.1001 12.6471V13.4332H16.0676C16.0676 14.9679 16.9964 15.9225 18.437 15.9225C19.3848 15.9225 20.0672 15.5107 20.3515 14.893H23.0243C22.6262 16.7647 20.9202 18 18.3802 18ZM16.0676 11.6925H20.4463C20.4463 10.4572 19.5744 9.57754 18.3233 9.57754C17.0343 9.57754 16.115 10.5227 16.0676 11.6925Z" fill="#1A1A1A"/>
<path d="M9.00688 8.57258C8.64297 7.29301 7.6422 6.50269 6.20474 6.50269C4.16682 6.50269 2.78394 8.12097 2.78394 10.9812C2.78394 13.8602 4.13043 15.4973 6.22294 15.4973C8.10619 15.4973 9.22523 14.3965 9.26162 12.6747H6.40489V10.5484H11.9V12.2419C11.9 15.8172 9.53456 18 6.20474 18C2.51101 18 0 15.328 0 11.0188C0 6.59677 2.67477 4 6.15015 4C9.11605 4 11.4087 5.88172 11.7726 8.57258H9.00688Z" fill="#1A1A1A"/>
</svg>
