<svg width="24" height="24" viewBox="0 0 24 24" fill="none" xmlns="http://www.w3.org/2000/svg">
<path d="M21.5508 8.37821L15.8612 2.68946C15.7219 2.55014 15.5565 2.43962 15.3745 2.36421C15.1925 2.28881 14.9974 2.25 14.8004 2.25C14.6034 2.25 14.4083 2.28881 14.2263 2.36421C14.0443 2.43962 13.8789 2.55014 13.7396 2.68946L8.71179 7.73321C7.71241 7.42008 5.43054 7.04227 3.04929 8.96508C2.88516 9.09706 2.75066 9.26213 2.65455 9.44953C2.55844 9.63694 2.50287 9.84248 2.49146 10.0528C2.48005 10.2631 2.51306 10.4734 2.58833 10.6701C2.66361 10.8668 2.77946 11.0455 2.92835 11.1945L7.45835 15.7226L3.45898 19.7191C3.31825 19.8599 3.23919 20.0507 3.23919 20.2498C3.23919 20.4488 3.31825 20.6397 3.45898 20.7804C3.59971 20.9211 3.79058 21.0002 3.9896 21.0002C4.18863 21.0002 4.3795 20.9211 4.52023 20.7804L8.51679 16.781L13.044 21.3082C13.1831 21.448 13.3485 21.5589 13.5306 21.6347C13.7127 21.7104 13.908 21.7495 14.1052 21.7498C14.1408 21.7498 14.1755 21.7498 14.2112 21.7498C14.425 21.7349 14.6331 21.6743 14.8214 21.5719C15.0097 21.4695 15.1738 21.3278 15.3024 21.1563C17.1437 18.7094 16.9665 16.7201 16.539 15.5313L21.5518 10.4998C21.691 10.3604 21.8015 10.195 21.8768 10.0129C21.9521 9.8309 21.9909 9.6358 21.9908 9.43879C21.9907 9.24178 21.9518 9.04672 21.8763 8.86474C21.8008 8.68276 21.6902 8.51744 21.5508 8.37821ZM20.4896 9.43946L15.1205 14.8263C15.0097 14.9376 14.9365 15.0809 14.9115 15.236C14.8864 15.3911 14.9107 15.5501 14.9808 15.6907C15.8677 17.4654 14.8121 19.3085 14.1052 20.2488L3.9896 10.1323C5.1221 9.21914 6.20585 8.97821 7.0346 8.97821C7.56047 8.97103 8.082 9.07418 8.56554 9.28102C8.70661 9.35162 8.86634 9.37594 9.02203 9.35053C9.17772 9.32511 9.32143 9.25125 9.43272 9.13946L14.8008 3.74977L20.4896 9.43852V9.43946Z" fill="#1A1A1A"/>
</svg>
